<mxfile host="app.diagrams.net" modified="2023-06-08T03:11:20.231Z" agent="Mozilla/5.0 (Macintosh; Intel Mac OS X 10_15_7) AppleWebKit/537.36 (KHTML, like Gecko) Chrome/113.0.0.0 Safari/537.36" etag="UsoTgomQBmj0lNcHjwTw" version="21.1.6" type="github">
  <diagram name="第 1 页" id="tRIivR8p3VdFODTFJSGN">
    <mxGraphModel dx="1434" dy="739" grid="1" gridSize="10" guides="1" tooltips="1" connect="1" arrows="1" fold="1" page="1" pageScale="1" pageWidth="827" pageHeight="1169" math="0" shadow="0">
      <root>
        <mxCell id="0" />
        <mxCell id="1" parent="0" />
        <mxCell id="a5z2mh0UkSRTbygZ9V1u-3" value="" style="edgeStyle=orthogonalEdgeStyle;rounded=0;orthogonalLoop=1;jettySize=auto;html=1;" edge="1" parent="1" source="a5z2mh0UkSRTbygZ9V1u-1" target="a5z2mh0UkSRTbygZ9V1u-2">
          <mxGeometry relative="1" as="geometry" />
        </mxCell>
        <mxCell id="a5z2mh0UkSRTbygZ9V1u-1" value="理解问题" style="rounded=1;whiteSpace=wrap;html=1;" vertex="1" parent="1">
          <mxGeometry x="220" y="140" width="120" height="60" as="geometry" />
        </mxCell>
        <mxCell id="a5z2mh0UkSRTbygZ9V1u-5" value="" style="edgeStyle=orthogonalEdgeStyle;rounded=0;orthogonalLoop=1;jettySize=auto;html=1;" edge="1" parent="1" source="a5z2mh0UkSRTbygZ9V1u-2" target="a5z2mh0UkSRTbygZ9V1u-4">
          <mxGeometry relative="1" as="geometry" />
        </mxCell>
        <mxCell id="a5z2mh0UkSRTbygZ9V1u-2" value="引导式询问" style="whiteSpace=wrap;html=1;rounded=1;" vertex="1" parent="1">
          <mxGeometry x="420" y="140" width="120" height="60" as="geometry" />
        </mxCell>
        <mxCell id="a5z2mh0UkSRTbygZ9V1u-7" value="" style="edgeStyle=orthogonalEdgeStyle;rounded=0;orthogonalLoop=1;jettySize=auto;html=1;" edge="1" parent="1" source="a5z2mh0UkSRTbygZ9V1u-4" target="a5z2mh0UkSRTbygZ9V1u-6">
          <mxGeometry relative="1" as="geometry" />
        </mxCell>
        <mxCell id="a5z2mh0UkSRTbygZ9V1u-4" value="图像分析" style="whiteSpace=wrap;html=1;rounded=1;" vertex="1" parent="1">
          <mxGeometry x="620" y="140" width="120" height="60" as="geometry" />
        </mxCell>
        <mxCell id="a5z2mh0UkSRTbygZ9V1u-9" value="" style="edgeStyle=orthogonalEdgeStyle;rounded=0;orthogonalLoop=1;jettySize=auto;html=1;" edge="1" parent="1" source="a5z2mh0UkSRTbygZ9V1u-6" target="a5z2mh0UkSRTbygZ9V1u-8">
          <mxGeometry relative="1" as="geometry" />
        </mxCell>
        <mxCell id="a5z2mh0UkSRTbygZ9V1u-6" value="根据图像分析结果进行进一步问询" style="whiteSpace=wrap;html=1;rounded=1;" vertex="1" parent="1">
          <mxGeometry x="620" y="280" width="120" height="60" as="geometry" />
        </mxCell>
        <mxCell id="a5z2mh0UkSRTbygZ9V1u-11" value="" style="edgeStyle=orthogonalEdgeStyle;rounded=0;orthogonalLoop=1;jettySize=auto;html=1;" edge="1" parent="1" source="a5z2mh0UkSRTbygZ9V1u-8" target="a5z2mh0UkSRTbygZ9V1u-10">
          <mxGeometry relative="1" as="geometry" />
        </mxCell>
        <mxCell id="a5z2mh0UkSRTbygZ9V1u-8" value="根据问询结果综合分析" style="whiteSpace=wrap;html=1;rounded=1;" vertex="1" parent="1">
          <mxGeometry x="420" y="280" width="120" height="60" as="geometry" />
        </mxCell>
        <mxCell id="a5z2mh0UkSRTbygZ9V1u-10" value="得出可能病虫害并给出处理建议" style="whiteSpace=wrap;html=1;rounded=1;" vertex="1" parent="1">
          <mxGeometry x="220" y="280" width="120" height="60" as="geometry" />
        </mxCell>
      </root>
    </mxGraphModel>
  </diagram>
</mxfile>
